<svg width="225" height="40" viewBox="0 0 225 40" fill="none" xmlns="http://www.w3.org/2000/svg">
<path d="M32.1565 17.8059C31.2224 14.8326 28.4455 12.6747 25.1642 12.6747C24.9677 12.6747 24.7727 12.6832 24.5791 12.6974C20.806 12.9955 17.8369 16.1525 17.8369 20.0034C17.8369 24.0493 21.1169 27.3307 25.1642 27.3307C25.5839 27.3307 25.9951 27.2953 26.3965 27.2275C29.7216 26.6651 32.2837 23.8628 32.4787 20.4274C32.4872 20.2875 32.4914 20.1461 32.4914 20.0034C32.4914 19.2375 32.3741 18.4998 32.1565 17.8059ZM28.2322 20.3539C28.0569 21.8914 26.7483 23.0912 25.1642 23.0912C23.4613 23.0912 22.0764 21.7049 22.0764 20.0034C22.0764 18.302 23.4613 16.9142 25.1642 16.9142C26.4827 16.9142 27.6118 17.7466 28.0527 18.9125C28.1813 19.2516 28.2519 19.619 28.2519 20.0034C28.2519 20.1221 28.2449 20.2394 28.2322 20.3539Z" fill="#1CB78D"/>
<path d="M60.3323 17.8059C59.3982 14.8326 56.6213 12.6747 53.34 12.6747C53.1435 12.6747 52.9485 12.6832 52.7549 12.6974C48.9818 12.9955 46.0127 16.1525 46.0127 20.0034C46.0127 24.0493 49.2927 27.3307 53.34 27.3307C53.7597 27.3307 54.1709 27.2953 54.5722 27.2275C57.8974 26.6651 60.4595 23.8628 60.6545 20.4274C60.663 20.2875 60.6672 20.1461 60.6672 20.0034C60.6672 19.2375 60.5499 18.4998 60.3323 17.8059ZM56.4079 20.3539C56.2327 21.8914 54.9241 23.0912 53.34 23.0912C51.6371 23.0912 50.2522 21.7049 50.2522 20.0034C50.2522 18.302 51.6371 16.9142 53.34 16.9142C54.6584 16.9142 55.7876 17.7466 56.2285 18.9125C56.3571 19.2516 56.4277 19.619 56.4277 20.0034C56.4277 20.1221 56.4207 20.2394 56.4079 20.3539Z" fill="#F0F8F0"/>
<path d="M197.615 17.8059C196.681 14.8326 193.905 12.6747 190.623 12.6747C190.427 12.6747 190.232 12.6832 190.038 12.6974C186.265 12.9955 183.296 16.1525 183.296 20.0034C183.296 24.0493 186.576 27.3307 190.623 27.3307C191.043 27.3307 191.454 27.2953 191.855 27.2275C195.181 26.6651 197.743 23.8628 197.938 20.4274C197.946 20.2875 197.95 20.1461 197.95 20.0034C197.95 19.2375 197.833 18.4998 197.615 17.8059ZM193.691 20.3539C193.516 21.8914 192.207 23.0912 190.623 23.0912C188.92 23.0912 187.535 21.7049 187.535 20.0034C187.535 18.302 188.92 16.9142 190.623 16.9142C191.942 16.9142 193.071 17.7466 193.512 18.9125C193.64 19.2516 193.711 19.619 193.711 20.0034C193.711 20.1221 193.704 20.2394 193.691 20.3539Z" fill="#F0F8F0"/>
<path d="M41.3701 10.2357C41.7065 9.88947 42.1813 9.71707 42.796 9.71707C43.1225 9.71707 43.4009 9.77077 43.6312 9.87534C43.8615 9.98133 44.0636 10.1297 44.236 10.3219L47.0299 7.4984C46.4914 6.9614 45.8626 6.52897 45.1433 6.20253C44.4226 5.87609 43.5832 5.71216 42.6236 5.71216C41.3758 5.71216 40.2806 5.98207 39.3394 6.51908C38.3983 7.05749 37.6775 7.78244 37.1787 8.69394C36.6784 9.60684 36.4297 10.6384 36.4297 11.7902V12.9716H33.3193V16.7447H36.4297V26.9704H40.8656V16.7461H44.8691V12.973H40.8656V11.6474C40.8656 11.0525 41.0338 10.5819 41.3701 10.2357Z" fill="#F0F8F0"/>
<path d="M71.1978 12.6847C69.6801 12.6847 68.4845 13.1369 67.6112 14.0385C67.6069 14.0442 67.6013 14.0484 67.5971 14.054V12.973H63.1611V26.9718H67.5971V19.3096C67.5971 18.4066 67.8133 17.7297 68.2457 17.2789C68.6781 16.8281 69.2688 16.602 70.0178 16.602C70.3824 16.602 70.7088 16.6599 70.9971 16.7744C71.2854 16.8903 71.5158 17.0429 71.6882 17.2351L74.3096 13.8944C73.9252 13.4916 73.4786 13.1892 72.9699 12.9871C72.4612 12.785 71.8705 12.6847 71.1978 12.6847Z" fill="#F0F8F0"/>
<path d="M83.7869 21.0096C83.7869 21.7402 83.6004 22.3154 83.2259 22.7379C82.8514 23.1605 82.337 23.371 81.6841 23.371C81.2418 23.371 80.8588 23.2749 80.5324 23.0827C80.2059 22.8905 79.9558 22.6178 79.7834 22.2617C79.611 21.907 79.5248 21.4887 79.5248 21.0082V12.973H75.0889V21.0676C75.0889 22.2772 75.3673 23.3484 75.9241 24.2797C76.4808 25.211 77.2637 25.9458 78.2713 26.4828C79.2789 27.0198 80.4179 27.2897 81.6841 27.2897C82.9503 27.2897 84.1331 27.0255 85.1125 26.4969C86.0918 25.9684 86.8549 25.2392 87.4032 24.308C87.9501 23.3767 88.2242 22.297 88.2242 21.0676V12.973H83.7883V21.0096H83.7869Z" fill="#F0F8F0"/>
<path d="M110.603 13.3615C109.758 12.9107 108.807 12.6846 107.751 12.6846C106.695 12.6846 105.667 12.915 104.783 13.3757C104.188 13.6852 103.68 14.0893 103.25 14.5811C102.847 14.0794 102.366 13.6668 101.802 13.346C101.024 12.9051 100.155 12.6832 99.1944 12.6832C98.1387 12.6832 97.2018 12.8994 96.3864 13.3319C96.0218 13.5255 95.6911 13.7558 95.393 14.0215V12.9715H90.957V26.9703H95.393V18.7895C95.393 18.3288 95.4933 17.9345 95.6954 17.6081C95.8974 17.2817 96.1702 17.0273 96.5164 16.845C96.8626 16.6627 97.2555 16.5708 97.6978 16.5708C98.3309 16.5708 98.8637 16.7673 99.2961 17.1615C99.7285 17.5558 99.9448 18.0971 99.9448 18.7895V26.9703H104.381V18.7895C104.381 18.3288 104.477 17.9345 104.669 17.6081C104.861 17.2817 105.134 17.0273 105.49 16.845C105.845 16.6627 106.233 16.5708 106.657 16.5708C107.272 16.5708 107.795 16.7673 108.227 17.1615C108.66 17.5558 108.876 18.0971 108.876 18.7895V26.9703H113.312V18.2709C113.312 17.0994 113.072 16.1017 112.591 15.275C112.111 14.4497 111.448 13.8109 110.603 13.3587V13.3615Z" fill="#F0F8F0"/>
<path d="M125.913 12.9871C125.405 12.785 124.814 12.6847 124.141 12.6847C122.623 12.6847 121.428 13.1369 120.555 14.0385C120.55 14.0442 120.545 14.0484 120.54 14.054V12.973H116.104V26.9718H120.54V19.3096C120.54 18.4066 120.757 17.7297 121.189 17.2789C121.621 16.8281 122.212 16.602 122.961 16.602C123.326 16.602 123.652 16.6599 123.94 16.7744C124.229 16.8903 124.459 17.0429 124.632 17.2351L127.253 13.8944C126.869 13.4916 126.422 13.1892 125.913 12.9871Z" fill="#F0F8F0"/>
<path d="M137.709 14.1304C137.332 13.7714 136.895 13.4718 136.398 13.2316C135.639 12.867 134.789 12.6847 133.848 12.6847C132.561 12.6847 131.415 12.997 130.406 13.6202C129.398 14.2448 128.601 15.1083 128.015 16.212C127.428 17.317 127.136 18.5691 127.136 19.971C127.136 21.3728 127.428 22.6164 128.015 23.7017C128.6 24.787 129.402 25.6505 130.42 26.2949C131.437 26.9379 132.581 27.2601 133.848 27.2601C134.808 27.2601 135.667 27.0778 136.426 26.7132C136.913 26.4786 137.34 26.1875 137.708 25.8384V26.9732H142.057V12.973H137.708V14.1304H137.709ZM134.771 23.2566C134.176 23.2566 133.643 23.1181 133.173 22.8383C132.702 22.5599 132.328 22.1713 132.049 21.671C131.771 21.1722 131.631 20.6055 131.631 19.971C131.631 19.3365 131.77 18.7712 132.049 18.2709C132.328 17.7721 132.702 17.3835 133.173 17.1051C133.643 16.8267 134.176 16.6868 134.771 16.6868C135.366 16.6868 135.933 16.8267 136.413 17.1051C136.892 17.3835 137.258 17.7678 137.508 18.2568C137.757 18.7458 137.883 19.3082 137.883 19.9413C137.883 20.9206 137.599 21.7176 137.034 22.3324C136.467 22.9471 135.714 23.2537 134.772 23.2537L134.771 23.2566Z" fill="#F0F8F0"/>
<path d="M156.229 13.3616C155.404 12.9108 154.443 12.6847 153.349 12.6847C152.255 12.6847 151.352 12.9108 150.526 13.3616C150.177 13.5524 149.861 13.7785 149.575 14.0371V6.05981H145.139V26.9718H149.575V18.9931C149.575 18.5126 149.681 18.0901 149.891 17.7255C150.102 17.3609 150.39 17.0768 150.756 16.8762C151.121 16.6741 151.533 16.5738 151.995 16.5738C152.686 16.5738 153.263 16.7999 153.724 17.2507C154.184 17.7015 154.415 18.2837 154.415 18.9931V26.9718H158.851V18.0138C158.851 16.9581 158.62 16.0311 158.16 15.2341C157.699 14.4371 157.054 13.8138 156.229 13.3616Z" fill="#F0F8F0"/>
<path d="M164.41 21.9593C163.642 21.9593 163.013 22.2137 162.524 22.7224C162.035 23.2311 161.789 23.86 161.789 24.609C161.789 25.358 162.034 25.991 162.524 26.5097C163.014 27.0283 163.643 27.2869 164.41 27.2869C165.178 27.2869 165.808 27.0283 166.297 26.5097C166.786 25.991 167.032 25.358 167.032 24.609C167.032 23.86 166.787 23.2311 166.297 22.7224C165.807 22.2137 165.178 21.9593 164.41 21.9593Z" fill="#F0F8F0"/>
<path d="M178.281 22.9683C177.83 23.1605 177.316 23.2566 176.739 23.2566C176.163 23.2566 175.596 23.1181 175.097 22.8383C174.597 22.5599 174.208 22.1713 173.931 21.671C173.653 21.1722 173.513 20.5956 173.513 19.9427C173.513 19.2898 173.651 18.7472 173.931 18.2582C174.21 17.7693 174.594 17.3849 175.083 17.1065C175.572 16.8281 176.124 16.6882 176.739 16.6882C177.296 16.6882 177.791 16.7744 178.223 16.9468C178.655 17.1192 179.034 17.3891 179.361 17.7537L182.212 14.8737C181.502 14.1445 180.69 13.5919 179.779 13.2175C178.866 12.843 177.853 12.6564 176.741 12.6564C175.281 12.6564 173.965 12.973 172.794 13.6075C171.622 14.2406 170.701 15.1097 170.028 16.2148C169.355 17.3199 169.021 18.5719 169.021 19.9738C169.021 21.3757 169.351 22.6051 170.014 23.7187C170.677 24.8323 171.594 25.7056 172.765 26.3401C173.937 26.9732 175.253 27.2912 176.711 27.2912C177.863 27.2912 178.896 27.0947 179.807 26.7005C180.719 26.3076 181.55 25.7254 182.299 24.958L179.447 22.1345C179.12 22.4991 178.732 22.7775 178.281 22.9697V22.9683Z" fill="#F0F8F0"/>
<path d="M222.077 15.2765C221.597 14.4512 220.934 13.8124 220.089 13.3602C219.244 12.9094 218.293 12.6833 217.237 12.6833C216.182 12.6833 215.153 12.9136 214.27 13.3743C213.675 13.6838 213.166 14.088 212.736 14.5798C212.334 14.0781 211.852 13.6654 211.288 13.3447C210.511 12.9038 209.642 12.6819 208.681 12.6819C207.625 12.6819 206.688 12.8981 205.873 13.3305C205.508 13.5241 205.177 13.7545 204.879 14.0202V12.9702H200.443V26.969H204.879V18.7882C204.879 18.3275 204.98 17.9332 205.182 17.6068C205.384 17.2803 205.657 17.026 206.003 16.8437C206.349 16.6614 206.742 16.5695 207.184 16.5695C207.817 16.5695 208.35 16.7659 208.782 17.1602C209.215 17.5545 209.431 18.0957 209.431 18.7882V26.969H213.867V18.7882C213.867 18.3275 213.963 17.9332 214.155 17.6068C214.347 17.2803 214.62 17.026 214.976 16.8437C215.331 16.6614 215.72 16.5695 216.144 16.5695C216.758 16.5695 217.281 16.7659 217.714 17.1602C218.146 17.5545 218.362 18.0957 218.362 18.7882V26.969H222.798V18.2695C222.798 17.098 222.558 16.1003 222.077 15.2736V15.2765Z" fill="#F0F8F0"/>
<path d="M16.0945 27.9567C16.0945 32.1764 12.6732 35.5977 8.45348 35.5977C4.23377 35.5977 0.8125 32.1764 0.8125 27.9567H4.66903C4.66903 30.0468 6.36341 31.7412 8.45348 31.7412C9.93307 31.7412 11.2148 30.8918 11.8366 29.6553C13.0872 29.3685 14.2192 28.7749 15.1519 27.9567C15.4727 27.6755 15.7694 27.3674 16.0393 27.0381C16.0761 27.3392 16.0945 27.6458 16.0945 27.9567Z" fill="#1CB78D"/>
<path d="M8.45348 16.5313C6.36341 16.5313 4.66903 18.2257 4.66903 20.3157C4.66903 20.6393 4.71001 20.9516 4.78632 21.2512C5.2032 22.8891 6.68703 24.0988 8.45348 24.0988C10.2199 24.0988 11.7052 22.8877 12.1221 21.2512C12.1984 20.9516 12.2393 20.6379 12.2393 20.3157H16.0959C16.0959 21.7077 15.7242 23.012 15.0727 24.1355C14.3958 25.307 13.4151 26.2821 12.2393 26.9534C12.2012 26.976 12.1616 26.9972 12.1221 27.0184C11.0339 27.6161 9.78327 27.9553 8.45348 27.9553C7.12369 27.9553 5.87446 27.6161 4.78632 27.0184C4.37367 26.7923 3.98505 26.5308 3.6247 26.2355C2.90964 25.6518 2.30056 24.9396 1.83563 24.1355C1.18558 23.012 0.8125 21.7063 0.8125 20.3157C0.8125 18.9252 1.1771 17.6463 1.81443 16.5313C3.13009 14.2278 5.61019 12.6747 8.45348 12.6747H16.0945V16.5313H8.45348Z" fill="#1CB78D"/>
</svg>
