<svg width="23" height="19" viewBox="0 0 23 19" fill="none" xmlns="http://www.w3.org/2000/svg">
<path d="M0.75 18H21.75" stroke="#1B1B1B" stroke-opacity="0.96" stroke-width="1.5" stroke-linecap="round" stroke-linejoin="round"/>
<path d="M12.749 18V1.5C12.749 1.30109 12.67 1.11032 12.5294 0.96967C12.3887 0.829018 12.1979 0.75 11.999 0.75H2.99902C2.80011 0.75 2.60935 0.829018 2.46869 0.96967C2.32804 1.11032 2.24902 1.30109 2.24902 1.5V18" stroke="#1B1B1B" stroke-opacity="0.96" stroke-width="1.5" stroke-linecap="round" stroke-linejoin="round"/>
<path d="M20.249 18V7.5C20.249 7.30109 20.17 7.11032 20.0294 6.96967C19.8887 6.82902 19.6979 6.75 19.499 6.75H12.749" stroke="#1B1B1B" stroke-opacity="0.96" stroke-width="1.5" stroke-linecap="round" stroke-linejoin="round"/>
<path d="M5.24902 4.5H8.24902" stroke="#1B1B1B" stroke-opacity="0.96" stroke-width="1.5" stroke-linecap="round" stroke-linejoin="round"/>
<path d="M6.74902 10.5H9.74902" stroke="#1B1B1B" stroke-opacity="0.96" stroke-width="1.5" stroke-linecap="round" stroke-linejoin="round"/>
<path d="M5.24902 14.25H8.24902" stroke="#616161" stroke-width="1.5" stroke-linecap="round" stroke-linejoin="round"/>
<path d="M15.749 14.25H17.249" stroke="#616161" stroke-width="1.5" stroke-linecap="round" stroke-linejoin="round"/>
<path d="M15.749 10.5H17.249" stroke="#616161" stroke-width="1.5" stroke-linecap="round" stroke-linejoin="round"/>
</svg>
