<svg width="20" height="20" viewBox="0 0 20 20" fill="none" xmlns="http://www.w3.org/2000/svg">
<path d="M1.25 16.8737H18.75" stroke="#9E9E9E" stroke-width="1.5" stroke-linecap="round" stroke-linejoin="round"/>
<path d="M11.25 16.8737V3.12366C11.25 2.9579 11.1842 2.79893 11.0669 2.68172C10.9497 2.56451 10.7908 2.49866 10.625 2.49866H3.125C2.95924 2.49866 2.80027 2.56451 2.68306 2.68172C2.56585 2.79893 2.5 2.9579 2.5 3.12366V16.8737" stroke="#9E9E9E" stroke-width="1.5" stroke-linecap="round" stroke-linejoin="round"/>
<path d="M17.5 16.8737V8.12366C17.5 7.9579 17.4342 7.79893 17.3169 7.68172C17.1997 7.56451 17.0408 7.49866 16.875 7.49866H11.25" stroke="#9E9E9E" stroke-width="1.5" stroke-linecap="round" stroke-linejoin="round"/>
<path d="M5 5.62366H7.5" stroke="#9E9E9E" stroke-width="1.5" stroke-linecap="round" stroke-linejoin="round"/>
<path d="M6.25 10.6237H8.75" stroke="#9E9E9E" stroke-width="1.5" stroke-linecap="round" stroke-linejoin="round"/>
<path d="M5 13.7487H7.5" stroke="#9E9E9E" stroke-width="1.5" stroke-linecap="round" stroke-linejoin="round"/>
<path d="M13.75 13.7487H15" stroke="#9E9E9E" stroke-width="1.5" stroke-linecap="round" stroke-linejoin="round"/>
<path d="M13.75 10.6237H15" stroke="#9E9E9E" stroke-width="1.5" stroke-linecap="round" stroke-linejoin="round"/>
</svg>
