<svg width="24" height="24" viewBox="0 0 24 24" fill="none" xmlns="http://www.w3.org/2000/svg">
<path d="M11.999 1.49973C9.81178 1.50232 7.71487 2.37235 6.16826 3.91896C4.62165 5.46557 3.75162 7.56249 3.74902 9.74973C3.74902 16.8088 11.249 22.1408 11.5684 22.3642C11.6947 22.4524 11.845 22.4997 11.999 22.4997C12.1531 22.4997 12.3034 22.4524 12.4297 22.3642C12.749 22.1408 20.249 16.8088 20.249 9.74973C20.2464 7.56249 19.3764 5.46557 17.8298 3.91896C16.2832 2.37235 14.1863 1.50232 11.999 1.49973ZM11.9996 6.75C12.5929 6.75 13.1729 6.92594 13.6663 7.25559C14.1596 7.58523 14.5441 8.05377 14.7712 8.60195C14.9983 9.15013 15.0577 9.75333 14.9419 10.3353C14.8262 10.9172 14.5405 11.4518 14.1209 11.8713C13.7013 12.2909 13.1668 12.5766 12.5848 12.6924C12.0029 12.8081 11.3997 12.7487 10.8515 12.5216C10.3033 12.2946 9.83481 11.9101 9.50516 11.4167C9.17552 10.9234 8.99957 10.3433 8.99957 9.75C8.99956 9.35603 9.07715 8.96592 9.22791 8.60193C9.37867 8.23795 9.59965 7.90723 9.87823 7.62865C10.1568 7.35007 10.4875 7.1291 10.8515 6.97834C11.2155 6.82758 11.6056 6.74999 11.9996 6.75Z" fill="#1CB78D"/>
</svg>
